<?xml version="1.0" encoding="utf-8"?>
<!-- Generator: Adobe Illustrator 26.3.1, SVG Export Plug-In . SVG Version: 6.00 Build 0)  -->
<svg version="1.1" id="Layer_1" xmlns="http://www.w3.org/2000/svg" xmlns:xlink="http://www.w3.org/1999/xlink" x="0px" y="0px"
	 viewBox="0 0 256.6 256.5" style="enable-background:new 0 0 256.6 256.5;" xml:space="preserve">
<style type="text/css">
	.st0{fill:url(#SVGID_1_);}
	.st1{fill:none;}
	.st2{fill:#E2DDED;}
	.st3{opacity:0.1;fill:url(#SVGID_00000168808805947977784970000007197503032602264250_);}
	.st4{fill:#ECE7F6;}
	.st5{fill:#EC1F2E;}
	.st6{fill:#EFEFEF;}
	.st7{opacity:0.1;fill:url(#SVGID_00000041262244455367911060000011029876902128949418_);}
	.st8{opacity:0.1;fill:url(#SVGID_00000095338542284119655880000015786162616888322457_);}
	.st9{opacity:5.000000e-02;fill:url(#SVGID_00000178177818240651626190000016559772911006612360_);}
	.st10{fill:#F2F2F9;}
	.st11{fill:none;stroke:#C61E1E;stroke-width:0.25;stroke-miterlimit:10;}
	.st12{opacity:5.000000e-02;fill:url(#SVGID_00000129205402948308277370000004076553827742878376_);}
	.st13{fill:none;stroke:#FFFFFF;stroke-miterlimit:10;}
</style>
<g>
	<linearGradient id="SVGID_1_" gradientUnits="userSpaceOnUse" x1="41.5373" y1="43.4666" x2="212.2384" y2="214.1678">
		<stop  offset="3.091156e-03" style="stop-color:#1BB3FD"/>
		<stop  offset="1" style="stop-color:#0C5DD8"/>
	</linearGradient>
	<path class="st0" d="M233.3,185.5c0,27.3-22.4,49.7-49.7,49.7h-113c-27.3,0-49.7-22.4-49.7-49.7v-113c0-27.3,22.4-49.7,49.7-49.7
		h113c27.3,0,49.7,22.4,49.7,49.7V185.5z"/>
	<path class="st1" d="M172.6,97.4c-1.8-2.6-3.9-5-6.1-7.2c-2.2-2.2-4.6-4.3-7.2-6.1c-5.3-3.8-11.4-6.7-17.9-8.4
		c-4.5-1.2-9.2-1.8-14-1.8c-4.8,0-9.5,0.6-14,1.8c-6.5,1.7-12.6,4.6-17.9,8.4c-2.6,1.8-5,3.9-7.2,6.1c-2.2,2.2-4.3,4.6-6.1,7.2
		c-3.8,5.3-6.7,11.4-8.4,17.9c-1.2,4.5-1.8,9.2-1.8,14v0c0,4.8,0.6,9.5,1.8,14c1.7,6.5,4.6,12.6,8.4,17.9c1.8,2.6,3.9,5,6.1,7.2
		c2.2,2.2,4.6,4.3,7.2,6.1c5.3,3.8,11.4,6.7,17.9,8.4c4.5,1.2,9.2,1.8,14,1.8c4.8,0,9.5-0.6,14-1.8c6.5-1.7,12.6-4.6,17.9-8.4
		c2.6-1.8,5-3.9,7.2-6.1c2.2-2.2,4.3-4.6,6.1-7.2c3.8-5.3,6.7-11.4,8.4-17.9c1.2-4.5,1.8-9.2,1.8-14v0c0-4.8-0.6-9.5-1.8-14
		C179.3,108.8,176.4,102.7,172.6,97.4z M127.5,129.3L127.5,129.3L127.5,129.3L127.5,129.3L127.5,129.3z"/>
	<path class="st2" d="M215.1,129.3l-23.6-9.7c-1.8-12.1-7.1-23.2-14.7-32.1l5.4-12.9h0l-12.9,5.4c-9-7.6-20-12.8-32.1-14.7
		l-9.7-23.6l-9.7,23.6c-12.1,1.8-23.2,7.1-32.1,14.7l-12.9-5.4l5.4,12.9c-7.6,9-12.8,20-14.7,32.1l-23.6,9.7l0,0l23.6,9.7
		c1.8,12.1,7.1,23.2,14.7,32.1L72.7,184l0,0l12.9-5.4c9,7.6,20,12.8,32.1,14.7l9.7,23.6l9.7-23.6c12.1-1.8,23.2-7.1,32.1-14.7
		l12.9,5.4l0,0l-5.4-12.9c7.6-9,12.8-20,14.7-32.1L215.1,129.3z M182.8,129.3c0,4.8-0.6,9.5-1.8,14c-1.7,6.5-4.6,12.6-8.4,17.9
		c-1.8,2.6-3.9,5-6.1,7.2c-2.2,2.2-4.6,4.3-7.2,6.1c-5.3,3.8-11.4,6.7-17.9,8.4c-4.5,1.2-9.2,1.8-14,1.8c-4.8,0-9.5-0.6-14-1.8
		c-6.5-1.7-12.6-4.6-17.9-8.4c-2.6-1.8-5-3.9-7.2-6.1c-2.2-2.2-4.3-4.6-6.1-7.2c-3.8-5.3-6.7-11.4-8.4-17.9c-1.2-4.5-1.8-9.2-1.8-14
		v0c0-4.8,0.6-9.5,1.8-14c1.7-6.5,4.6-12.6,8.4-17.9c1.8-2.6,3.9-5,6.1-7.2c2.2-2.2,4.6-4.3,7.2-6.1c5.3-3.8,11.4-6.7,17.9-8.4
		c4.5-1.2,9.2-1.8,14-1.8c4.8,0,9.5,0.6,14,1.8c6.5,1.7,12.6,4.6,17.9,8.4c2.6,1.8,5,3.9,7.2,6.1c2.2,2.2,4.3,4.6,6.1,7.2
		c3.8,5.3,6.7,11.4,8.4,17.9C182.2,119.7,182.8,124.4,182.8,129.3L182.8,129.3z"/>
	<g>
		
			<linearGradient id="SVGID_00000008866681725130804390000000561656886101219748_" gradientUnits="userSpaceOnUse" x1="108.5591" y1="93.1283" x2="210.0534" y2="227.7592">
			<stop  offset="0" style="stop-color:#000000"/>
			<stop  offset="1" style="stop-color:#FFFFFF"/>
		</linearGradient>
		<path style="opacity:0.1;fill:url(#SVGID_00000008866681725130804390000000561656886101219748_);" d="M165.5,50.2l67.9,67.9v67.4
			c0,27.3-22.4,49.7-49.7,49.7h-67.3l-26.6-26.3"/>
		<polygon class="st4" points="140.3,133.2 127.9,129.6 115.2,125.5 89.8,208.8 173.5,164.1 162.8,143.2 132.2,159.5 		"/>
		<polygon class="st5" points="115.2,125.5 127.4,129.5 140.3,133.2 165.5,50.2 81.8,95 92.5,115.8 123.1,99.5 		"/>
		<path class="st6" d="M183.9,152.4"/>
		
			<linearGradient id="SVGID_00000103947978484898462560000016732953270624391813_" gradientUnits="userSpaceOnUse" x1="102.7593" y1="127.5271" x2="166.4878" y2="127.5271" gradientTransform="matrix(0.9404 -0.3399 0.3399 0.9404 -36.6505 77.1339)">
			<stop  offset="0" style="stop-color:#000000"/>
			<stop  offset="1" style="stop-color:#FFFFFF"/>
		</linearGradient>
		<polygon style="opacity:0.1;fill:url(#SVGID_00000103947978484898462560000016732953270624391813_);" points="111,183.3 
			111,183.3 127.4,129.4 140.3,133.2 132.2,159.5 162.8,143.2 167.8,153 		"/>
		
			<linearGradient id="SVGID_00000090273168009283622780000015321991538136679354_" gradientUnits="userSpaceOnUse" x1="105.3482" y1="78.1224" x2="199.2308" y2="78.1224" gradientTransform="matrix(0.9404 -0.3399 0.3399 0.9404 -36.6505 77.1339)">
			<stop  offset="0" style="stop-color:#000000"/>
			<stop  offset="1" style="stop-color:#FFFFFF"/>
		</linearGradient>
		<polygon style="opacity:0.1;fill:url(#SVGID_00000090273168009283622780000015321991538136679354_);" points="87.1,105.3 81.8,95 
			165.5,50.2 140.3,133.2 127.4,129.5 144.8,74.9 		"/>
		
			<linearGradient id="SVGID_00000029761351673502610620000003071332749922971831_" gradientUnits="userSpaceOnUse" x1="132.4283" y1="110.5667" x2="158.0949" y2="136.2333" gradientTransform="matrix(0.9954 9.586549e-02 -9.586549e-02 0.9954 7.2423 2.0817)">
			<stop  offset="0" style="stop-color:#000000"/>
			<stop  offset="1" style="stop-color:#FFFFFF"/>
		</linearGradient>
		<polygon style="opacity:5.000000e-02;fill:url(#SVGID_00000029761351673502610620000003071332749922971831_);" points="
			157.8,168.4 120.6,133.9 131.7,122 169.6,156.1 		"/>
		<circle class="st10" cx="127.4" cy="129.4" r="8.3"/>
	</g>
	<path class="st11" d="M120.6,134.9"/>
</g>
<linearGradient id="SVGID_00000009581888623907082690000018281209380879444657_" gradientUnits="userSpaceOnUse" x1="121.5663" y1="130.6774" x2="135.6829" y2="130.6774">
	<stop  offset="0" style="stop-color:#000000"/>
	<stop  offset="1" style="stop-color:#FFFFFF"/>
</linearGradient>
<path style="opacity:5.000000e-02;fill:url(#SVGID_00000009581888623907082690000018281209380879444657_);" d="M133.3,123.6
	c3.2,3.2,3.2,8.4-0.1,11.7c-3.2,3.2-8.5,3.2-11.7,0L133.3,123.6z"/>
<path class="st13" d="M239.3,124"/>
<path class="st13" d="M165.5,50.2"/>
<path class="st13" d="M137.7,256.5"/>
<path class="st13" d="M90,208.8"/>
</svg>
