<svg viewBox="0 0 1024 1024" version="1.1" xmlns="http://www.w3.org/2000/svg">
  <path d="M512 548.571429v256q0 14.857143-10.857143 25.714285t-25.714286 10.857143-25.714285-10.857143l-82.285715-82.285714-189.714285 189.714286q-5.714286 5.714286-13.142857 5.714285t-13.142858-5.714285l-65.142857-65.142857q-5.714286-5.714286-5.714285-13.142858t5.714285-13.142857l189.714286-189.714285-82.285714-82.285715q-10.857143-10.857143-10.857143-25.714285t10.857143-25.714286 25.714285-10.857143h256q14.857143 0 25.714286 10.857143t10.857143 25.714286z m431.428571-384q0 7.428571-5.714285 13.142857l-189.714286 189.714285 82.285714 82.285715q10.857143 10.857143 10.857143 25.714285t-10.857143 25.714286-25.714285 10.857143H548.571429q-14.857143 0-25.714286-10.857143t-10.857143-25.714286V219.428571q0-14.857143 10.857143-25.714285t25.714286-10.857143 25.714285 10.857143l82.285715 82.285714 189.714285-189.714286q5.714286-5.714286 13.142857-5.714285t13.142858 5.714285l65.142857 65.142857q5.714286 5.714286 5.714285 13.142858z"></path>
</svg>