<svg class="icon" style="width: 1em;height: 1em;vertical-align: middle;fill: currentColor;overflow: hidden;" viewBox="0 0 1024 1024" version="1.1" xmlns="http://www.w3.org/2000/svg" p-id="776">
  <path d="M680.716219 202.849529a84.601907 84.601907 0 0 0-84.601907-84.358098H259.413352a84.601907 84.601907 0 0 0-84.601907 84.601907v449.097154c0 46.81143 37.546668 84.601907 84.114288 84.601906V202.849529z m-337.432389 168.960004c0-46.81143 38.034287-84.601907 84.845716-84.601907h336.457151c46.81143 0 84.845716 37.790477 84.845716 84.601907v449.097153a84.845716 84.845716 0 0 1-84.845716 84.601907h-336.457151a84.601907 84.601907 0 0 1-84.845716-84.601907z m84.358097-0.24381h337.432389v449.584773H427.641927z" p-id="777"></path>
</svg>