<svg class="icon" style="width: 1em;height: 1em;vertical-align: middle;fill: currentColor;overflow: hidden;" viewBox="0 0 1024 1024" version="1.1" xmlns="http://www.w3.org/2000/svg" p-id="1022">
  <path d="M512.000012 160.182861C279.405721 160.182861 80.457145 305.98096 0 512.000012a550.521918 550.521918 0 0 0 512.000012 351.817151c232.594291 0 431.542867-145.798099 512.000012-351.817151A550.521918 550.521918 0 0 0 512.000012 160.182861z m0 586.361919a234.788577 232.838101 90 0 1-232.594291-234.544768 234.788577 232.838101 90 0 1 232.594291-234.544767 234.788577 232.838101 90 0 1 232.594291 234.544767 234.788577 232.838101 90 0 1-232.594291 234.544768z m0-375.466676a140.678099 139.459051 90 0 0-139.70286 140.921908c0 78.019049 62.41524 140.678099 139.70286 140.678099a140.678099 139.459051 90 0 0 139.702861-140.678099 140.678099 139.459051 90 0 0-139.702861-140.678098z" p-id="1023"></path>
</svg>