<svg class="icon" style="width: 1em;height: 1em;vertical-align: middle;fill: currentColor;overflow: hidden;" viewBox="0 0 1024 1024" version="1.1" xmlns="http://www.w3.org/2000/svg" p-id="1057">
  <path d="M689.249552 613.180967h-39.984762l-14.140953-13.653334a327.923817 327.923817 0 0 0 79.481906-214.308576 329.386675 329.386675 0 1 0-329.142864 329.386674 327.923817 327.923817 0 0 0 214.308576-79.481906l13.653334 14.140952v39.984763l253.318101 252.830482 75.580954-75.580954z m-304.030483 0a227.718101 227.718101 0 0 1-227.96191-227.96191 227.718101 227.718101 0 0 1 227.96191-227.96191 227.718101 227.718101 0 0 1 228.20572 227.96191 227.718101 227.718101 0 0 1-228.20572 227.96191z" p-id="1058"></path>
</svg>