<svg viewBox="0 0 1029 1024" version="1.1" xmlns="http://www.w3.org/2000/svg">
  <path d="M966.894845 433.72846c19.597876-13.413808 40.642299-24.497345 61.203874-36.54558l0-24.09647c-17.831428-40.16045-36.38463-79.356201-53.091409-119.676601-9.637988-23.292721-23.372696-29.798688-46.666417-20.401624-39.276726 16.06398-67.307966 8.835239-100.239675-25.301093-37.027429-38.393002-59.838301-70.360012-37.188379-123.291471 3.212996-7.389691-5.381318-27.067541-13.413808-30.843361-34.036364-16.878725-76.782006-34.787129-120.653296-50.314277-16.774758-5.589253-37.175383 5.334333-41.513027 14.410497-20.561575 44.176195-49.718463 55.822555-100.078725 56.22443s-82.408247-10.441737-103.612621-56.786254c-4.09672-8.996189-26.666667-17.590503-36.786504-14.296532-40.16045 13.091909-79.436176 30.923336-118.873852 46.987316-18.714152 7.630615-25.943893 18.875102-19.758825 40.642299s18.152327 53.413308 8.514339 68.754514c-21.906154 32.456857-48.884724 59.640362-80.101968 81.102655-12.908966 9.177132-40.217432 1.386567-58.209809-5.1194-31.084286-11.325461-47.228241-0.481849-58.231803 27.710341-15.421181 39.758575-32.12796 78.954327-48.19194 118.471978l0 16.06398c2.822118 0.60781 5.317338 1.521525 7.635614 2.729147 23.929522 16.547829 60.716026 28.835989 68.185692 51.085036 11.726336 34.778132 6.104092 76.625055 2.168322 114.858107-1.124649 11.325461-20.561575 21.767198-33.091659 30.521462-14.055608 9.798938-29.878663 17.268604-44.898969 25.701968l0 16.06398c18.072352 42.730647 36.625555 85.300344 54.136082 128.51184 9.478038 23.131771 24.09647 29.316838 47.228241 19.8388 39.356701-16.06398 67.067042-8.514339 99.757826 25.381068 36.947454 38.393002 58.231803 70.841862 37.429303 123.532396-3.052046 8.03249 7.549641 27.710341 16.786754 32.12796 39.6786 20.642549 81.283599 37.670228 122.086848 56.22443l24.09647 0c24.09647-90.199813 97.749453-78.633427 164.89747-78.312527 8.03249 0 18.554202 9.076164 24.09647 16.706779 13.332833 19.67885 24.09647 40.963199 36.22468 61.524774l24.09647 0c40.16045-17.750453 79.517151-36.06373 119.757576-53.011434 22.971821-9.637988 27.951265-23.372696 20.802499-47.308216-6.345017-20.963449-16.06398-50.682162-7.067791-64.25592 22.062106-32.15895 49.443549-58.927585 81.140644-79.641112 15.484161-9.834927 45.041924 0.525836 66.166323 7.353702 23.131771 7.228741 34.698157 0.642799 43.533396-20.1607 17.108654-40.16045 35.420931-79.919025 53.172384-119.837551l0-24.09647c-84.175695-48.19194-91.966261-64.25592-78.312527-164.656545 2.412246-10.287785 8.47935-18.868104 16.726773-24.487348zM505.53602 865.610497c-202.486723-4.979444-352.605811-166.985817-346.581693-374.051109 5.542268-190.358513 169.395064-343.288722 362.243799-337.987379 200.80025 5.542268 354.131334 165.05742 349.47279 363.689347-3.067042 193.179631-160.387879 348.604061-354.009372 348.604061-3.912777 0-7.810559-0.06298-11.692346-0.188941z"></path>
  <path d="M735.733083 680.552327c-5.703218-44.09622-15.341206-76.786004-56.22443-94.054608-31.665105-13.1209-58.94358-30.036614-82.983068-50.626179-41.673977-36.520587-79.906029-77.483786-118.941831-118.126086-11.577382-11.849297-20.569572-26.278788-26.030865-42.339769-17.100656-57.016182-33.807435-71.312715-100.633552-76.614058l50.521212 58.392752-47.067291 52.28866-65.541518-56.947204c8.03249 46.826367 13.172883 88.35239 56.22443 97.669478 40.16045 8.03249 65.862418 32.12796 92.047235 58.553702 37.429303 38.152077 75.983255 75.099531 112.44786 113.974383 11.412434 11.974258 20.249672 26.512715 25.555014 42.653671 16.291909 54.855858 35.48791 70.597938 101.591253 74.774633l-50.601187-57.590003c38.553952-53.895158 38.553952-53.895158 109.636739-2.008372z"></path>
  <path d="M494.853358 592.601812c-21.686223 11.96726-43.051546 24.658294-64.25592 37.188379l-8.674289-8.03249c8.888222-10.370759 17.50253-21.79219 25.389066-33.737457 5.032427-10.262793 8.702281-20.793502 11.261481-31.750078-10.985567 1.9194-20.648547 5.593252-29.830678 10.095845-12.362137 7.601624-24.329397 17.400562-39.188754 28.164199-10.119838-37.509278 48.19194-44.898969 28.19219-83.773821-41.445048 40.16045-79.195251 73.813933-113.974383 110.600437-25.542018 26.987566-20.240675 55.581631 5.381318 81.444549 28.914964 29.236863 57.509028 34.939082 84.657545 9.878913 38.072102-35.180006 72.28841-74.054858 108.913964-111.484161-2.811122-3.212996-7.148766-8.996189-7.87154-8.594314z"></path>
  <path d="M565.937145 428.267167l21.445298 19.67885 158.069603-136.142455-44.337145-40.883224z"></path>
  <path d="M617.341081 503.526648l-76.465105-74.777632 72.28841 79.597126z"></path>
  <path d="M511.881037 396.701031l-2.088347 1.606498 31.084286 30.441487z"></path>
</svg>